<svg xmlns="http://www.w3.org/2000/svg" viewBox="0 0 900 700" role="img" aria-label="大模型后训练推理数据精选：三大板块十四个方向的繁花之树">
  <rect width="900" height="700" fill="#ffffff"/>

  <g transform="translate(-300 78.75) scale(1.25)">
    <!-- tree -->
    <g stroke="#b49a7f" fill="none" stroke-linecap="round">
      <path d="M600 425 C598 388 594 345 596 300 C598 268 602 240 599 212" stroke-width="22"/>
      <path d="M597 312 C565 286 534 264 505 240 C487 225 473 210 466 194" stroke-width="11"/>
      <path d="M540 264 C528 246 521 230 519 210" stroke-width="5"/>
      <path d="M598 352 C562 337 531 326 502 306" stroke-width="8"/>
      <path d="M523 317 C509 302 501 289 498 272" stroke-width="4.5"/>
      <path d="M598 302 C630 274 662 252 692 230 C712 215 726 200 732 184" stroke-width="11"/>
      <path d="M660 252 C674 236 683 220 685 200" stroke-width="5"/>
      <path d="M599 347 C640 331 669 322 701 300" stroke-width="8"/>
      <path d="M669 313 C683 298 691 285 694 268" stroke-width="4.5"/>
      <path d="M599 240 C597 210 601 184 598 158 C597 138 599 118 597 98" stroke-width="9"/>
      <path d="M598 172 C586 156 579 143 577 126" stroke-width="5"/>
      <path d="M598 150 C611 138 618 126 620 110" stroke-width="5"/>
      <path d="M466 194 C461 182 456 172 453 163" stroke-width="4"/>
      <path d="M465 196 C452 190 441 184 433 179" stroke-width="3.5"/>
      <path d="M500 236 C472 238 446 236 422 233" stroke-width="4"/>
      <path d="M502 306 C488 295 474 284 463 274" stroke-width="3.5"/>
      <path d="M519 210 C518 202 517 194 516 186" stroke-width="3"/>
      <path d="M732 184 C725 172 719 162 714 156" stroke-width="4"/>
      <path d="M734 186 C749 182 764 179 776 176" stroke-width="3.5"/>
      <path d="M685 200 C681 190 678 182 677 175" stroke-width="3"/>
      <path d="M694 268 C685 259 678 252 673 246" stroke-width="3.5"/>
      <path d="M701 300 C723 285 743 268 760 252" stroke-width="4"/>
      <path d="M694 268 C701 268 707 268 713 268" stroke-width="3"/>
    </g>

    <!-- group blossoms: big circle = group, inner dots = tracks -->
    <g transform="translate(600 112)"><circle r="44" fill="#4ade80" fill-opacity="0.32" stroke="#16a34a" stroke-opacity="0.4" stroke-width="1.5"><animateTransform attributeName="transform" type="scale" values="0;0;1.06;1;1;0;0" keyTimes="0;0.03;0.065;0.09;0.86;0.93;1" dur="10s" repeatCount="indefinite"/></circle></g>
    <g transform="translate(472 212)"><circle r="114" fill="#60a5fa" fill-opacity="0.26" stroke="#2563eb" stroke-opacity="0.35" stroke-width="1.5"><animateTransform attributeName="transform" type="scale" values="0;0;1.06;1;1;0;0" keyTimes="0;0.1;0.135;0.16;0.86;0.93;1" dur="10s" repeatCount="indefinite"/></circle></g>
    <g transform="translate(726 208)"><circle r="108" fill="#d8b4fe" fill-opacity="0.28" stroke="#9333ea" stroke-opacity="0.35" stroke-width="1.5"><animateTransform attributeName="transform" type="scale" values="0;0;1.06;1;1;0;0" keyTimes="0;0.32;0.355;0.38;0.86;0.93;1" dur="10s" repeatCount="indefinite"/></circle></g>

    <!-- track blossoms -->
    <g>
      <g transform="translate(600 110)"><g><animateTransform attributeName="transform" type="scale" values="0;0;1.2;1;1;0;0" keyTimes="0;0.07;0.1;0.12;0.86;0.93;1" dur="10s" repeatCount="indefinite"/><circle r="17" fill="#16a34a" fill-opacity="0.5"/></g></g>
      <g transform="translate(621 101)"><g><animateTransform attributeName="transform" type="scale" values="0;0;1.2;1;1;0;0" keyTimes="0;0.09;0.12;0.14;0.86;0.93;1" dur="10s" repeatCount="indefinite"/><circle r="6" fill="#4ade80" fill-opacity="0.45"/></g></g>
      <g transform="translate(582 128)"><g><animateTransform attributeName="transform" type="scale" values="0;0;1.2;1;1;0;0" keyTimes="0;0.1;0.13;0.15;0.86;0.93;1" dur="10s" repeatCount="indefinite"/><circle r="5" fill="#86efac" fill-opacity="0.5"/></g></g>

      <g transform="translate(452 158)"><g><animateTransform attributeName="transform" type="scale" values="0;0;1.2;1;1;0;0" keyTimes="0;0.13;0.16;0.18;0.86;0.93;1" dur="10s" repeatCount="indefinite"/><circle r="17" fill="#3b82f6" fill-opacity="0.55"/></g></g>
      <g transform="translate(516 180)"><g><animateTransform attributeName="transform" type="scale" values="0;0;1.2;1;1;0;0" keyTimes="0;0.155;0.185;0.205;0.86;0.93;1" dur="10s" repeatCount="indefinite"/><circle r="12" fill="#0ea5e9" fill-opacity="0.5"/></g></g>
      <g transform="translate(508 254)"><g><animateTransform attributeName="transform" type="scale" values="0;0;1.2;1;1;0;0" keyTimes="0;0.18;0.21;0.23;0.86;0.93;1" dur="10s" repeatCount="indefinite"/><circle r="16" fill="#06b6d4" fill-opacity="0.55"/></g></g>
      <g transform="translate(458 270)"><g><animateTransform attributeName="transform" type="scale" values="0;0;1.2;1;1;0;0" keyTimes="0;0.205;0.235;0.255;0.86;0.93;1" dur="10s" repeatCount="indefinite"/><circle r="12" fill="#6366f1" fill-opacity="0.5"/></g></g>
      <g transform="translate(414 232)"><g><animateTransform attributeName="transform" type="scale" values="0;0;1.2;1;1;0;0" keyTimes="0;0.23;0.26;0.28;0.86;0.93;1" dur="10s" repeatCount="indefinite"/><circle r="18" fill="#2563eb" fill-opacity="0.5"/></g></g>
      <g transform="translate(430 176)"><g><animateTransform attributeName="transform" type="scale" values="0;0;1.2;1;1;0;0" keyTimes="0;0.255;0.285;0.305;0.86;0.93;1" dur="10s" repeatCount="indefinite"/><circle r="11" fill="#0284c7" fill-opacity="0.55"/></g></g>
      <g transform="translate(478 214)"><g><animateTransform attributeName="transform" type="scale" values="0;0;1.2;1;1;0;0" keyTimes="0;0.28;0.31;0.33;0.86;0.93;1" dur="10s" repeatCount="indefinite"/><circle r="21" fill="#4f46e5" fill-opacity="0.5"/></g></g>
      <g transform="translate(500 240)"><g><animateTransform attributeName="transform" type="scale" values="0;0;1.2;1;1;0;0" keyTimes="0;0.3;0.33;0.35;0.86;0.93;1" dur="10s" repeatCount="indefinite"/><circle r="6" fill="#60a5fa" fill-opacity="0.45"/></g></g>
      <g transform="translate(446 190)"><g><animateTransform attributeName="transform" type="scale" values="0;0;1.2;1;1;0;0" keyTimes="0;0.31;0.34;0.36;0.86;0.93;1" dur="10s" repeatCount="indefinite"/><circle r="5" fill="#38bdf8" fill-opacity="0.5"/></g></g>

      <g transform="translate(712 150)"><g><animateTransform attributeName="transform" type="scale" values="0;0;1.2;1;1;0;0" keyTimes="0;0.35;0.38;0.4;0.86;0.93;1" dur="10s" repeatCount="indefinite"/><circle r="16" fill="#a855f7" fill-opacity="0.55"/></g></g>
      <g transform="translate(780 174)"><g><animateTransform attributeName="transform" type="scale" values="0;0;1.2;1;1;0;0" keyTimes="0;0.375;0.405;0.425;0.86;0.93;1" dur="10s" repeatCount="indefinite"/><circle r="12" fill="#c026d3" fill-opacity="0.5"/></g></g>
      <g transform="translate(768 246)"><g><animateTransform attributeName="transform" type="scale" values="0;0;1.2;1;1;0;0" keyTimes="0;0.4;0.43;0.45;0.86;0.93;1" dur="10s" repeatCount="indefinite"/><circle r="17" fill="#db2777" fill-opacity="0.5"/></g></g>
      <g transform="translate(716 268)"><g><animateTransform attributeName="transform" type="scale" values="0;0;1.2;1;1;0;0" keyTimes="0;0.425;0.455;0.475;0.86;0.93;1" dur="10s" repeatCount="indefinite"/><circle r="13" fill="#e11d48" fill-opacity="0.55"/></g></g>
      <g transform="translate(670 240)"><g><animateTransform attributeName="transform" type="scale" values="0;0;1.2;1;1;0;0" keyTimes="0;0.45;0.48;0.5;0.86;0.93;1" dur="10s" repeatCount="indefinite"/><circle r="15" fill="#9333ea" fill-opacity="0.5"/></g></g>
      <g transform="translate(676 168)"><g><animateTransform attributeName="transform" type="scale" values="0;0;1.2;1;1;0;0" keyTimes="0;0.475;0.505;0.525;0.86;0.93;1" dur="10s" repeatCount="indefinite"/><circle r="11" fill="#f43f5e" fill-opacity="0.55"/></g></g>
      <g transform="translate(734 206)"><g><animateTransform attributeName="transform" type="scale" values="0;0;1.2;1;1;0;0" keyTimes="0;0.5;0.53;0.55;0.86;0.93;1" dur="10s" repeatCount="indefinite"/><circle r="7" fill="#c084fc" fill-opacity="0.4"/></g></g>
      <g transform="translate(736 278)"><g><animateTransform attributeName="transform" type="scale" values="0;0;1.2;1;1;0;0" keyTimes="0;0.51;0.54;0.56;0.86;0.93;1" dur="10s" repeatCount="indefinite"/><circle r="5" fill="#f0abfc" fill-opacity="0.5"/></g></g>
    </g>
  </g>

  <!-- labels -->
  <g font-family="'Helvetica Neue', Helvetica, Arial, 'PingFang SC', 'Hiragino Sans GB', 'Microsoft YaHei', sans-serif" font-weight="700">
    <g opacity="0"><animate attributeName="opacity" values="0;0;1;1;0;0" keyTimes="0;0.025;0.065;0.86;0.93;1" dur="10s" repeatCount="indefinite"/>
      <text x="450" y="128" text-anchor="middle" font-size="22" fill="#16a34a">① 基础与入门</text></g>
    <g opacity="0"><animate attributeName="opacity" values="0;0;1;1;0;0" keyTimes="0;0.08;0.12;0.86;0.93;1" dur="10s" repeatCount="indefinite"/>
      <text x="450" y="156" text-anchor="middle" font-size="16" fill="#15803d">00 · 基础入门与综述</text></g>

    <g opacity="0"><animate attributeName="opacity" values="0;0;1;1;0;0" keyTimes="0;0.095;0.135;0.86;0.93;1" dur="10s" repeatCount="indefinite"/>
      <text x="64" y="468" font-size="18" fill="#2563eb">② 核心数据类型</text></g>
    <g opacity="0"><animate attributeName="opacity" values="0;0;1;1;0;0" keyTimes="0;0.13;0.17;0.86;0.93;1" dur="10s" repeatCount="indefinite"/>
      <text x="64" y="496" font-size="15.5" fill="#3b82f6">01 · 指令与思维链数据</text></g>
    <g opacity="0"><animate attributeName="opacity" values="0;0;1;1;0;0" keyTimes="0;0.155;0.195;0.86;0.93;1" dur="10s" repeatCount="indefinite"/>
      <text x="64" y="521" font-size="15.5" fill="#0ea5e9">02 · 偏好与奖励数据</text></g>
    <g opacity="0"><animate attributeName="opacity" values="0;0;1;1;0;0" keyTimes="0;0.18;0.22;0.86;0.93;1" dur="10s" repeatCount="indefinite"/>
      <text x="64" y="546" font-size="15.5" fill="#06b6d4">03 · 可验证结果数据</text></g>
    <g opacity="0"><animate attributeName="opacity" values="0;0;1;1;0;0" keyTimes="0;0.205;0.245;0.86;0.93;1" dur="10s" repeatCount="indefinite"/>
      <text x="64" y="571" font-size="15.5" fill="#6366f1">04 · 过程监督数据</text></g>
    <g opacity="0"><animate attributeName="opacity" values="0;0;1;1;0;0" keyTimes="0;0.23;0.27;0.86;0.93;1" dur="10s" repeatCount="indefinite"/>
      <text x="64" y="596" font-size="15.5" fill="#2563eb">05 · 采样与搜索轨迹</text></g>
    <g opacity="0"><animate attributeName="opacity" values="0;0;1;1;0;0" keyTimes="0;0.255;0.295;0.86;0.93;1" dur="10s" repeatCount="indefinite"/>
      <text x="64" y="621" font-size="15.5" fill="#0284c7">06 · 智能体轨迹数据</text></g>
    <g opacity="0"><animate attributeName="opacity" values="0;0;1;1;0;0" keyTimes="0;0.28;0.32;0.86;0.93;1" dur="10s" repeatCount="indefinite"/>
      <text x="64" y="646" font-size="15.5" fill="#4f46e5">07 · 评审与专家数据</text></g>

    <g opacity="0"><animate attributeName="opacity" values="0;0;1;1;0;0" keyTimes="0;0.315;0.355;0.86;0.93;1" dur="10s" repeatCount="indefinite"/>
      <text x="836" y="468" text-anchor="end" font-size="18" fill="#9333ea">③ 数据生命周期</text></g>
    <g opacity="0"><animate attributeName="opacity" values="0;0;1;1;0;0" keyTimes="0;0.35;0.39;0.86;0.93;1" dur="10s" repeatCount="indefinite"/>
      <text x="836" y="496" text-anchor="end" font-size="15.5" fill="#a855f7">08 · 数据构造与发布</text></g>
    <g opacity="0"><animate attributeName="opacity" values="0;0;1;1;0;0" keyTimes="0;0.375;0.415;0.86;0.93;1" dur="10s" repeatCount="indefinite"/>
      <text x="836" y="521" text-anchor="end" font-size="15.5" fill="#c026d3">09 · 训练用途与优化目标</text></g>
    <g opacity="0"><animate attributeName="opacity" values="0;0;1;1;0;0" keyTimes="0;0.4;0.44;0.86;0.93;1" dur="10s" repeatCount="indefinite"/>
      <text x="836" y="546" text-anchor="end" font-size="15.5" fill="#db2777">10 · 规模化与推理时计算</text></g>
    <g opacity="0"><animate attributeName="opacity" values="0;0;1;1;0;0" keyTimes="0;0.425;0.465;0.86;0.93;1" dur="10s" repeatCount="indefinite"/>
      <text x="836" y="571" text-anchor="end" font-size="15.5" fill="#e11d48">11 · 基准与评测</text></g>
    <g opacity="0"><animate attributeName="opacity" values="0;0;1;1;0;0" keyTimes="0;0.45;0.49;0.86;0.93;1" dur="10s" repeatCount="indefinite"/>
      <text x="836" y="596" text-anchor="end" font-size="15.5" fill="#9333ea">12 · 前沿报告与数据披露</text></g>
    <g opacity="0"><animate attributeName="opacity" values="0;0;1;1;0;0" keyTimes="0;0.475;0.515;0.86;0.93;1" dur="10s" repeatCount="indefinite"/>
      <text x="836" y="621" text-anchor="end" font-size="15.5" fill="#f43f5e">13 · 审计与失效模式</text></g>

    <text x="450" y="680" text-anchor="middle" font-size="19" fill="#a18a72">3 大板块 · 14 个方向 · 280+ 篇论文</text>
  </g>
</svg>
